<svg width="278" height="278" viewBox="0 0 278 278" fill="none" xmlns="http://www.w3.org/2000/svg">
<g id="favicon-dark" clip-path="url(#clip0_25_55)">
<g id="icon">
<path id="leafs-background" d="M90.1668 109.659L101.617 65.7066L77.2415 57.9519C77.2415 57.9519 90.3308 46.5439 114.728 42.4399C159.879 34.8426 229.505 45.4639 226.036 151.764C164.357 151.395 90.1668 109.659 90.1668 109.659Z" fill="#C9A4EA"/>
<path id="helmet" d="M77.6093 278.447C77.6093 278.447 127.471 247.545 185.087 243.113C175.116 215.412 181.395 160.011 204.663 160.011C227.931 160.011 204.291 210.98 219.804 226.123C227.931 222.061 227.561 212.457 220.544 206.917C216.112 184.019 250.829 108.551 189.151 78.6347C124.172 47.1187 68.0079 106.828 75.7626 169.244C88.3199 145.976 127.471 130.464 153.692 150.039C130.795 182.911 81.3039 180.941 77.6093 189.436V278.447Z" fill="white"/>
<g id="leafs">
<path id="leaf-branch" d="M65 68C65 68 98.5 29.0672 167.5 44C236.5 58.9328 226 151.5 226 151.5" stroke="#9333EA" stroke-width="8" stroke-linecap="round"/>
<path id="leaf-10" d="M38.1174 74.6187C50.0427 62.6947 70.2 63.5133 70.2 63.5133C70.2 63.5133 71.02 83.6733 59.0934 95.5987C47.1694 107.524 27.012 106.704 27.012 106.704C27.012 106.704 26.1907 86.5467 38.1174 74.6187Z" fill="#9333EA"/>
<path id="leaf-9" d="M65.8707 30.0587C82.204 33.5387 92.384 50.7293 92.384 50.7293C92.384 50.7293 76.0774 62.2733 59.7427 58.7893C43.4107 55.3053 33.2307 38.1186 33.2307 38.1186C33.2307 38.1186 49.536 26.5747 65.8707 30.0587Z" fill="#9333EA"/>
<path id="leaf-8" d="M87.1881 60.368C95.6721 45.9827 115.201 41.784 115.201 41.784C115.201 41.784 120.977 60.9067 112.492 75.292C104.005 89.6773 84.476 93.8787 84.476 93.8787C84.476 93.8787 78.7027 74.7534 87.1881 60.368Z" fill="#9333EA"/>
<path id="leaf-7" d="M126.467 12.968C140.089 21.4387 143.681 40.2854 143.681 40.2854C143.681 40.2854 125.189 45.3974 111.567 36.9267C97.9466 28.456 94.3533 9.60936 94.3533 9.60936C94.3533 9.60936 112.847 4.49738 126.467 12.968Z" fill="#9333EA"/>
<path id="leaf-6" d="M139.429 49.4173C152.701 40.408 171.383 44.776 171.383 44.776C171.383 44.776 168.548 63.7534 155.275 72.7627C142.005 81.772 123.321 77.404 123.321 77.404C123.321 77.404 126.159 58.428 139.429 49.4173Z" fill="#9333EA"/>
<path id="leaf-5" d="M187.629 21.2627C192.6 35.4214 184.177 51.2707 184.177 51.2707C184.177 51.2707 167.697 44.164 162.727 30.008C157.757 15.848 166.177 2.3401e-05 166.177 2.3401e-05C166.177 2.3401e-05 182.66 7.10669 187.629 21.2627Z" fill="#9333EA"/>
<path id="leaf-4" d="M225.381 50.44C221.615 63.0066 207.512 69.8813 207.512 69.8813C207.512 69.8813 199.513 56.3813 203.28 43.8173C207.047 31.2506 221.149 24.3759 221.149 24.3759C221.149 24.3759 229.147 37.876 225.381 50.44Z" fill="#9333EA"/>
<path id="leaf-3" d="M198.055 70.0746C212.196 75.0906 219.251 91.5933 219.251 91.5933C219.251 91.5933 203.375 99.9653 189.233 94.9506C175.091 89.9346 168.037 73.432 168.037 73.432C168.037 73.432 183.913 65.0613 198.055 70.0746Z" fill="#9333EA"/>
<path id="leaf-2" d="M247.836 101.096C241.673 112.677 226.492 116.645 226.492 116.645C226.492 116.645 221.303 101.837 227.465 90.2573C233.628 78.676 248.809 74.7093 248.809 74.7093C248.809 74.7093 253.997 89.516 247.836 101.096Z" fill="#9333EA"/>
<path id="leaf-1" d="M220.196 116.023C228.651 126.052 226.685 141.619 226.685 141.619C226.685 141.619 211.009 140.924 202.556 130.896C194.1 120.865 196.064 105.299 196.064 105.299C196.064 105.299 211.741 105.995 220.196 116.023Z" fill="#9333EA"/>
</g>
</g>
</g>
<defs>
<clipPath id="clip0_25_55">
<rect width="278" height="278" fill="white"/>
</clipPath>
</defs>
</svg>
